<svg width="302" height="577" viewBox="0 0 302 577" fill="none" xmlns="http://www.w3.org/2000/svg">
<path d="M103.676 359.377L104.297 359.717L104.824 359.245C111.05 353.669 126.672 346.351 145.077 344.118C163.441 341.889 184.378 344.748 201.349 359.26L201.848 359.686L202.437 359.399C207.35 357.002 212.066 356.663 216.532 357.942C221.022 359.228 225.332 362.172 229.354 366.465C237.409 375.064 244.137 388.896 248.68 404.783C253.219 420.652 255.549 438.47 254.879 454.961C254.209 471.473 250.537 486.542 243.181 497.01C213.482 539.27 149.187 548.344 104.732 517.103C93.7934 509.416 85.4791 494.245 79.9079 475.975C74.3488 457.744 71.5749 436.605 71.5875 417.202C71.6001 397.77 74.4073 380.214 79.9049 369.083C82.6534 363.518 86.0122 359.685 89.9051 357.935C93.7453 356.209 98.2988 356.427 103.676 359.377Z" fill="white" stroke="#12284F" stroke-width="2"/>
<path fill-rule="evenodd" clip-rule="evenodd" d="M184.696 349.042L174.125 444.476C155.532 446.63 136.485 445.209 118.096 440.021L128.313 347.78C146.369 342.82 166.007 343.115 184.696 349.042Z" fill="#12284F"/>
<path fill-rule="evenodd" clip-rule="evenodd" d="M108.408 436.9C108.021 436.758 107.636 436.615 107.25 436.47L101.468 418.417L109.999 409.225L98.4344 388.808L128.621 345.517L129.426 346.105L99.6055 388.872L110.704 408.466L111.106 408.033L111.602 408.882L102.555 418.628L108.408 436.9Z" fill="#12284F"/>
<path d="M108.408 436.9L108.235 437.369L109.196 437.722L108.884 436.748L108.408 436.9ZM107.25 436.47L106.774 436.622L106.848 436.853L107.074 436.938L107.25 436.47ZM101.468 418.417L101.101 418.076L100.902 418.291L100.992 418.569L101.468 418.417ZM109.999 409.225L110.366 409.565L110.615 409.297L110.434 408.979L109.999 409.225ZM98.4344 388.808L98.0243 388.522L97.8442 388.781L97.9994 389.055L98.4344 388.808ZM128.621 345.517L128.916 345.113L128.504 344.811L128.211 345.231L128.621 345.517ZM129.426 346.105L129.836 346.391L130.116 345.99L129.721 345.701L129.426 346.105ZM99.6055 388.872L99.1954 388.586L99.0152 388.844L99.1704 389.118L99.6055 388.872ZM110.704 408.466L110.269 408.712L110.606 409.307L111.071 408.806L110.704 408.466ZM111.106 408.033L111.537 407.781L111.197 407.2L110.739 407.693L111.106 408.033ZM111.602 408.882L111.968 409.222L112.221 408.95L112.033 408.629L111.602 408.882ZM102.555 418.628L102.189 418.288L101.99 418.502L102.079 418.78L102.555 418.628ZM108.58 436.431C108.195 436.289 107.81 436.146 107.426 436.002L107.074 436.938C107.461 437.083 107.848 437.227 108.235 437.369L108.58 436.431ZM100.992 418.569L106.774 436.622L107.726 436.317L101.944 418.264L100.992 418.569ZM109.633 408.885L101.101 418.076L101.834 418.757L110.366 409.565L109.633 408.885ZM97.9994 389.055L109.564 409.472L110.434 408.979L98.8695 388.562L97.9994 389.055ZM128.211 345.231L98.0243 388.522L98.8446 389.094L129.031 345.803L128.211 345.231ZM129.721 345.701L128.916 345.113L128.326 345.92L129.131 346.509L129.721 345.701ZM100.016 389.158L129.836 346.391L129.016 345.819L99.1954 388.586L100.016 389.158ZM111.139 408.219L100.041 388.625L99.1704 389.118L110.269 408.712L111.139 408.219ZM110.739 407.693L110.338 408.126L111.071 408.806L111.472 408.374L110.739 407.693ZM112.033 408.629L111.537 407.781L110.674 408.286L111.17 409.134L112.033 408.629ZM102.922 418.968L111.968 409.222L111.235 408.541L102.189 418.288L102.922 418.968ZM108.884 436.748L103.031 418.475L102.079 418.78L107.931 437.053L108.884 436.748Z" fill="#12284F"/>
<path fill-rule="evenodd" clip-rule="evenodd" d="M188.746 442.291C189.151 442.218 189.556 442.143 189.961 442.066L198.761 425.276L191.936 414.755L206.839 396.63L184.544 348.793L183.65 349.234L205.674 396.491L191.372 413.885L191.051 413.39L190.417 414.141L197.653 425.297L188.746 442.291Z" fill="#12284F"/>
<path d="M188.746 442.291L188.836 442.783L187.829 442.965L188.304 442.059L188.746 442.291ZM189.961 442.066L190.404 442.298L190.291 442.513L190.054 442.558L189.961 442.066ZM198.761 425.276L199.18 425.004L199.339 425.249L199.203 425.508L198.761 425.276ZM191.936 414.755L191.517 415.027L191.318 414.72L191.55 414.437L191.936 414.755ZM206.839 396.63L207.292 396.419L207.425 396.704L207.225 396.947L206.839 396.63ZM184.544 348.793L184.323 348.345L184.781 348.119L184.997 348.582L184.544 348.793ZM183.65 349.234L183.196 349.446L182.99 349.002L183.428 348.786L183.65 349.234ZM205.674 396.491L206.127 396.28L206.26 396.565L206.06 396.809L205.674 396.491ZM191.372 413.885L191.759 414.203L191.325 414.731L190.953 414.157L191.372 413.885ZM191.051 413.39L190.67 413.068L191.104 412.553L191.471 413.118L191.051 413.39ZM190.417 414.141L189.997 414.413L189.795 414.101L190.035 413.818L190.417 414.141ZM197.653 425.297L198.073 425.025L198.232 425.27L198.096 425.529L197.653 425.297ZM188.657 441.799C189.061 441.726 189.464 441.651 189.868 441.575L190.054 442.558C189.648 442.634 189.242 442.71 188.836 442.783L188.657 441.799ZM199.203 425.508L190.404 442.298L189.518 441.834L198.318 425.044L199.203 425.508ZM192.356 414.483L199.18 425.004L198.341 425.548L191.517 415.027L192.356 414.483ZM207.225 396.947L192.322 415.072L191.55 414.437L206.453 396.312L207.225 396.947ZM184.997 348.582L207.292 396.419L206.386 396.841L184.091 349.004L184.997 348.582ZM183.428 348.786L184.323 348.345L184.765 349.242L183.871 349.683L183.428 348.786ZM205.221 396.702L183.196 349.446L184.103 349.023L206.127 396.28L205.221 396.702ZM190.986 413.568L205.288 396.174L206.06 396.809L191.759 414.203L190.986 413.568ZM191.471 413.118L191.792 413.613L190.953 414.157L190.632 413.663L191.471 413.118ZM190.035 413.818L190.67 413.068L191.433 413.713L190.798 414.464L190.035 413.818ZM197.234 425.569L189.997 414.413L190.836 413.869L198.073 425.025L197.234 425.569ZM188.304 442.059L197.21 425.065L198.096 425.529L189.189 442.523L188.304 442.059Z" fill="#12284F"/>
<rect y="344.065" width="33.3218" height="41.365" rx="10" transform="rotate(-19.7756 0 344.065)" fill="#D9D9D9"/>
<path d="M41.4164 351.967C42.5175 349.773 45.189 348.886 47.3835 349.987V349.987C49.6803 351.14 50.5246 353.994 49.2243 356.21L42.1791 368.22C41.4193 369.515 39.9968 370.273 38.498 370.183V370.183C35.6393 370.011 33.8881 366.972 35.1724 364.412L41.4164 351.967Z" fill="#D9D9D9"/>
<ellipse cx="121" cy="83" rx="91" ry="83" fill="#4FA3D4"/>
<ellipse cx="121" cy="83" rx="91" ry="83" fill="#097CBF"/>
<ellipse cx="45.5" cy="166" rx="13.5" ry="13" fill="#097CBF"/>
<circle cx="64" cy="204" r="5" fill="#097CBF"/>
<path d="M57.0241 54L52.0298 36.5455H56.0611L58.9503 48.6733H59.0952L62.2827 36.5455H65.7344L68.9134 48.6989H69.0668L71.956 36.5455H75.9872L70.9929 54H67.3963L64.0724 42.5881H63.9361L60.6207 54H57.0241ZM82.4538 54.2557C81.1072 54.2557 79.9482 53.983 78.9766 53.4375C78.0107 52.8864 77.2663 52.108 76.7436 51.1023C76.2209 50.0909 75.9595 48.8949 75.9595 47.5142C75.9595 46.1676 76.2209 44.9858 76.7436 43.9688C77.2663 42.9517 78.0021 42.1591 78.951 41.5909C79.9055 41.0227 81.0249 40.7386 82.3089 40.7386C83.1726 40.7386 83.9766 40.8778 84.7209 41.1562C85.4709 41.429 86.1243 41.8409 86.6811 42.392C87.2436 42.9432 87.6811 43.6364 87.9936 44.4716C88.3061 45.3011 88.4624 46.2727 88.4624 47.3864V48.3835H77.4084V46.1335H85.0447C85.0447 45.6108 84.9311 45.1477 84.7038 44.7443C84.4766 44.3409 84.1612 44.0256 83.7578 43.7983C83.3601 43.5653 82.897 43.4489 82.3686 43.4489C81.8175 43.4489 81.3288 43.5767 80.9027 43.8324C80.4822 44.0824 80.1527 44.4205 79.9141 44.8466C79.6754 45.267 79.5533 45.7358 79.5476 46.2528V48.392C79.5476 49.0398 79.6669 49.5994 79.9055 50.071C80.1499 50.5426 80.4936 50.9062 80.9368 51.1619C81.38 51.4176 81.9055 51.5455 82.5135 51.5455C82.9169 51.5455 83.2862 51.4886 83.6214 51.375C83.9567 51.2614 84.2436 51.0909 84.4822 50.8636C84.7209 50.6364 84.9027 50.358 85.0277 50.0284L88.3857 50.25C88.2152 51.0568 87.8658 51.7614 87.3374 52.3636C86.8146 52.9602 86.1385 53.4261 85.3089 53.7614C84.4851 54.0909 83.5334 54.2557 82.4538 54.2557ZM94.4624 36.5455V54H90.8317V36.5455H94.4624ZM103.286 54.2557C101.945 54.2557 100.791 53.9716 99.8253 53.4034C98.8651 52.8295 98.1264 52.0341 97.6094 51.017C97.098 50 96.8423 48.8295 96.8423 47.5057C96.8423 46.1648 97.1009 44.9886 97.6179 43.9773C98.1406 42.9602 98.8821 42.1676 99.8423 41.5994C100.803 41.0256 101.945 40.7386 103.268 40.7386C104.411 40.7386 105.411 40.946 106.268 41.3608C107.126 41.7756 107.805 42.358 108.305 43.108C108.805 43.858 109.081 44.7386 109.132 45.75H105.706C105.609 45.0966 105.354 44.571 104.939 44.1733C104.53 43.7699 103.993 43.5682 103.328 43.5682C102.766 43.5682 102.274 43.7216 101.854 44.0284C101.439 44.3295 101.115 44.7699 100.882 45.3494C100.649 45.929 100.533 46.6307 100.533 47.4545C100.533 48.2898 100.646 49 100.874 49.5852C101.107 50.1705 101.433 50.6165 101.854 50.9233C102.274 51.2301 102.766 51.3835 103.328 51.3835C103.743 51.3835 104.115 51.2983 104.445 51.1278C104.78 50.9574 105.055 50.7102 105.271 50.3864C105.493 50.0568 105.638 49.6619 105.706 49.2017H109.132C109.075 50.2017 108.803 51.0824 108.314 51.8438C107.831 52.5994 107.163 53.1903 106.311 53.6165C105.459 54.0426 104.45 54.2557 103.286 54.2557ZM117.371 54.2557C116.048 54.2557 114.903 53.9744 113.937 53.4119C112.977 52.8437 112.235 52.054 111.712 51.0426C111.19 50.0256 110.928 48.8466 110.928 47.5057C110.928 46.1534 111.19 44.9716 111.712 43.9602C112.235 42.9432 112.977 42.1534 113.937 41.5909C114.903 41.0227 116.048 40.7386 117.371 40.7386C118.695 40.7386 119.837 41.0227 120.798 41.5909C121.763 42.1534 122.508 42.9432 123.031 43.9602C123.553 44.9716 123.815 46.1534 123.815 47.5057C123.815 48.8466 123.553 50.0256 123.031 51.0426C122.508 52.054 121.763 52.8437 120.798 53.4119C119.837 53.9744 118.695 54.2557 117.371 54.2557ZM117.388 51.4432C117.991 51.4432 118.494 51.2727 118.897 50.9318C119.3 50.5852 119.604 50.1136 119.809 49.517C120.019 48.9205 120.124 48.2415 120.124 47.4801C120.124 46.7188 120.019 46.0398 119.809 45.4432C119.604 44.8466 119.3 44.375 118.897 44.0284C118.494 43.6818 117.991 43.5085 117.388 43.5085C116.781 43.5085 116.269 43.6818 115.854 44.0284C115.445 44.375 115.136 44.8466 114.925 45.4432C114.721 46.0398 114.619 46.7188 114.619 47.4801C114.619 48.2415 114.721 48.9205 114.925 49.517C115.136 50.1136 115.445 50.5852 115.854 50.9318C116.269 51.2727 116.781 51.4432 117.388 51.4432ZM126.175 54V40.9091H129.636V43.2188H129.789C130.062 42.4517 130.516 41.8466 131.153 41.4034C131.789 40.9602 132.55 40.7386 133.437 40.7386C134.335 40.7386 135.099 40.9631 135.729 41.4119C136.36 41.8551 136.781 42.4574 136.991 43.2188H137.127C137.394 42.4688 137.877 41.8693 138.576 41.4205C139.281 40.9659 140.113 40.7386 141.073 40.7386C142.295 40.7386 143.286 41.1278 144.048 41.9062C144.815 42.679 145.198 43.7756 145.198 45.196V54H141.576V45.9119C141.576 45.1847 141.383 44.6392 140.996 44.2756C140.61 43.9119 140.127 43.7301 139.548 43.7301C138.888 43.7301 138.374 43.9403 138.005 44.3608C137.636 44.7756 137.451 45.3239 137.451 46.0057V54H133.931V45.8352C133.931 45.1932 133.746 44.6818 133.377 44.3011C133.013 43.9205 132.533 43.7301 131.937 43.7301C131.533 43.7301 131.17 43.8324 130.846 44.0369C130.528 44.2358 130.275 44.517 130.087 44.8807C129.9 45.2386 129.806 45.6591 129.806 46.142V54H126.175ZM154.032 54.2557C152.685 54.2557 151.526 53.983 150.555 53.4375C149.589 52.8864 148.844 52.108 148.322 51.1023C147.799 50.0909 147.538 48.8949 147.538 47.5142C147.538 46.1676 147.799 44.9858 148.322 43.9688C148.844 42.9517 149.58 42.1591 150.529 41.5909C151.484 41.0227 152.603 40.7386 153.887 40.7386C154.751 40.7386 155.555 40.8778 156.299 41.1562C157.049 41.429 157.702 41.8409 158.259 42.392C158.822 42.9432 159.259 43.6364 159.572 44.4716C159.884 45.3011 160.04 46.2727 160.04 47.3864V48.3835H148.987V46.1335H156.623C156.623 45.6108 156.509 45.1477 156.282 44.7443C156.055 44.3409 155.739 44.0256 155.336 43.7983C154.938 43.5653 154.475 43.4489 153.947 43.4489C153.396 43.4489 152.907 43.5767 152.481 43.8324C152.06 44.0824 151.731 44.4205 151.492 44.8466C151.254 45.267 151.131 45.7358 151.126 46.2528V48.392C151.126 49.0398 151.245 49.5994 151.484 50.071C151.728 50.5426 152.072 50.9062 152.515 51.1619C152.958 51.4176 153.484 51.5455 154.092 51.5455C154.495 51.5455 154.864 51.4886 155.2 51.375C155.535 51.2614 155.822 51.0909 156.06 50.8636C156.299 50.6364 156.481 50.358 156.606 50.0284L159.964 50.25C159.793 51.0568 159.444 51.7614 158.915 52.3636C158.393 52.9602 157.717 53.4261 156.887 53.7614C156.063 54.0909 155.112 54.2557 154.032 54.2557ZM174.928 40.9091V43.6364H167.044V40.9091H174.928ZM168.834 37.7727H172.464V49.9773C172.464 50.3125 172.516 50.5739 172.618 50.7614C172.72 50.9432 172.862 51.071 173.044 51.1449C173.232 51.2187 173.447 51.2557 173.692 51.2557C173.862 51.2557 174.033 51.2415 174.203 51.2131C174.374 51.179 174.504 51.1534 174.595 51.1364L175.166 53.8381C174.984 53.8949 174.729 53.9602 174.399 54.0341C174.07 54.1136 173.669 54.1619 173.197 54.179C172.322 54.2131 171.555 54.0966 170.896 53.8295C170.243 53.5625 169.734 53.1477 169.371 52.5852C169.007 52.0227 168.828 51.3125 168.834 50.4545V37.7727ZM183.067 54.2557C181.743 54.2557 180.598 53.9744 179.632 53.4119C178.672 52.8437 177.93 52.054 177.408 51.0426C176.885 50.0256 176.624 48.8466 176.624 47.5057C176.624 46.1534 176.885 44.9716 177.408 43.9602C177.93 42.9432 178.672 42.1534 179.632 41.5909C180.598 41.0227 181.743 40.7386 183.067 40.7386C184.391 40.7386 185.533 41.0227 186.493 41.5909C187.459 42.1534 188.203 42.9432 188.726 43.9602C189.249 44.9716 189.51 46.1534 189.51 47.5057C189.51 48.8466 189.249 50.0256 188.726 51.0426C188.203 52.054 187.459 52.8437 186.493 53.4119C185.533 53.9744 184.391 54.2557 183.067 54.2557ZM183.084 51.4432C183.686 51.4432 184.189 51.2727 184.592 50.9318C184.996 50.5852 185.3 50.1136 185.504 49.517C185.714 48.9205 185.82 48.2415 185.82 47.4801C185.82 46.7188 185.714 46.0398 185.504 45.4432C185.3 44.8466 184.996 44.375 184.592 44.0284C184.189 43.6818 183.686 43.5085 183.084 43.5085C182.476 43.5085 181.964 43.6818 181.55 44.0284C181.141 44.375 180.831 44.8466 180.621 45.4432C180.416 46.0398 180.314 46.7188 180.314 47.4801C180.314 48.2415 180.416 48.9205 180.621 49.517C180.831 50.1136 181.141 50.5852 181.55 50.9318C181.964 51.2727 182.476 51.4432 183.084 51.4432ZM83.8686 83V65.5455H87.5589V72.7472H95.0504V65.5455H98.7322V83H95.0504V75.7898H87.5589V83H83.8686ZM107.673 83.2557C106.326 83.2557 105.167 82.983 104.195 82.4375C103.229 81.8864 102.485 81.108 101.962 80.1023C101.44 79.0909 101.178 77.8949 101.178 76.5142C101.178 75.1676 101.44 73.9858 101.962 72.9688C102.485 71.9517 103.221 71.1591 104.17 70.5909C105.124 70.0227 106.244 69.7386 107.528 69.7386C108.391 69.7386 109.195 69.8778 109.94 70.1562C110.69 70.429 111.343 70.8409 111.9 71.392C112.462 71.9432 112.9 72.6364 113.212 73.4716C113.525 74.3011 113.681 75.2727 113.681 76.3864V77.3835H102.627V75.1335H110.263C110.263 74.6108 110.15 74.1477 109.923 73.7443C109.695 73.3409 109.38 73.0256 108.977 72.7983C108.579 72.5653 108.116 72.4489 107.587 72.4489C107.036 72.4489 106.548 72.5767 106.121 72.8324C105.701 73.0824 105.371 73.4205 105.133 73.8466C104.894 74.267 104.772 74.7358 104.766 75.2528V77.392C104.766 78.0398 104.886 78.5994 105.124 79.071C105.369 79.5426 105.712 79.9062 106.156 80.1619C106.599 80.4176 107.124 80.5455 107.732 80.5455C108.136 80.5455 108.505 80.4886 108.84 80.375C109.175 80.2614 109.462 80.0909 109.701 79.8636C109.94 79.6364 110.121 79.358 110.246 79.0284L113.604 79.25C113.434 80.0568 113.085 80.7614 112.556 81.3636C112.033 81.9602 111.357 82.4261 110.528 82.7614C109.704 83.0909 108.752 83.2557 107.673 83.2557ZM119.783 83.2472C118.948 83.2472 118.204 83.1023 117.55 82.8125C116.897 82.517 116.38 82.0824 115.999 81.5085C115.624 80.929 115.437 80.2074 115.437 79.3438C115.437 78.6165 115.57 78.0057 115.837 77.5114C116.104 77.017 116.468 76.6193 116.928 76.3182C117.388 76.017 117.911 75.7898 118.496 75.6364C119.087 75.483 119.707 75.375 120.354 75.3125C121.116 75.233 121.729 75.1591 122.195 75.0909C122.661 75.017 122.999 74.9091 123.21 74.767C123.42 74.625 123.525 74.4148 123.525 74.1364V74.0852C123.525 73.5455 123.354 73.1278 123.013 72.8324C122.678 72.5369 122.201 72.3892 121.582 72.3892C120.928 72.3892 120.408 72.5341 120.022 72.8239C119.636 73.108 119.38 73.4659 119.255 73.8977L115.897 73.625C116.067 72.8295 116.403 72.142 116.903 71.5625C117.403 70.9773 118.048 70.5284 118.837 70.2159C119.633 69.8977 120.553 69.7386 121.599 69.7386C122.326 69.7386 123.022 69.8239 123.687 69.9943C124.357 70.1648 124.951 70.429 125.468 70.7869C125.991 71.1449 126.403 71.6051 126.704 72.1676C127.005 72.7244 127.156 73.392 127.156 74.1705V83H123.712V81.1847H123.61C123.4 81.5938 123.119 81.9545 122.766 82.267C122.414 82.5739 121.991 82.8153 121.496 82.9915C121.002 83.1619 120.431 83.2472 119.783 83.2472ZM120.823 80.7415C121.357 80.7415 121.829 80.6364 122.238 80.4261C122.647 80.2102 122.968 79.9205 123.201 79.5568C123.434 79.1932 123.55 78.7812 123.55 78.321V76.9318C123.437 77.0057 123.281 77.0739 123.082 77.1364C122.888 77.1932 122.67 77.2472 122.425 77.2983C122.181 77.3437 121.937 77.3864 121.692 77.4261C121.448 77.4602 121.227 77.4915 121.028 77.5199C120.602 77.5824 120.229 77.6818 119.911 77.8182C119.593 77.9545 119.346 78.1392 119.17 78.3722C118.994 78.5994 118.906 78.8835 118.906 79.2244C118.906 79.7188 119.085 80.0966 119.442 80.358C119.806 80.6136 120.266 80.7415 120.823 80.7415ZM133.603 65.5455V83H129.972V65.5455H133.603ZM143.474 69.9091V72.6364H135.591V69.9091H143.474ZM137.381 66.7727H141.011V78.9773C141.011 79.3125 141.063 79.5739 141.165 79.7614C141.267 79.9432 141.409 80.071 141.591 80.1449C141.778 80.2187 141.994 80.2557 142.239 80.2557C142.409 80.2557 142.58 80.2415 142.75 80.2131C142.92 80.179 143.051 80.1534 143.142 80.1364L143.713 82.8381C143.531 82.8949 143.276 82.9602 142.946 83.0341C142.616 83.1136 142.216 83.1619 141.744 83.179C140.869 83.2131 140.102 83.0966 139.443 82.8295C138.79 82.5625 138.281 82.1477 137.918 81.5852C137.554 81.0227 137.375 80.3125 137.381 79.4545V66.7727ZM149.751 75.4318V83H146.121V65.5455H149.649V72.2188H149.803C150.098 71.446 150.575 70.8409 151.234 70.4034C151.893 69.9602 152.72 69.7386 153.714 69.7386C154.624 69.7386 155.416 69.9375 156.092 70.3352C156.774 70.7273 157.303 71.2926 157.678 72.0312C158.058 72.7642 158.246 73.642 158.24 74.6648V83H154.609V75.3125C154.615 74.5057 154.411 73.8778 153.996 73.429C153.587 72.9801 153.013 72.7557 152.274 72.7557C151.78 72.7557 151.342 72.8608 150.962 73.071C150.587 73.2812 150.291 73.5881 150.075 73.9915C149.865 74.3892 149.757 74.8693 149.751 75.4318ZM91.8991 112.256C90.5526 112.256 89.3935 111.983 88.4219 111.438C87.456 110.886 86.7116 110.108 86.1889 109.102C85.6662 108.091 85.4048 106.895 85.4048 105.514C85.4048 104.168 85.6662 102.986 86.1889 101.969C86.7116 100.952 87.4474 100.159 88.3963 99.5909C89.3509 99.0227 90.4702 98.7386 91.7543 98.7386C92.6179 98.7386 93.4219 98.8778 94.1662 99.1562C94.9162 99.429 95.5696 99.8409 96.1264 100.392C96.6889 100.943 97.1264 101.636 97.4389 102.472C97.7514 103.301 97.9077 104.273 97.9077 105.386V106.384H86.8537V104.134H94.4901C94.4901 103.611 94.3764 103.148 94.1491 102.744C93.9219 102.341 93.6065 102.026 93.2031 101.798C92.8054 101.565 92.3423 101.449 91.8139 101.449C91.2628 101.449 90.7741 101.577 90.348 101.832C89.9276 102.082 89.598 102.42 89.3594 102.847C89.1207 103.267 88.9986 103.736 88.9929 104.253V106.392C88.9929 107.04 89.1122 107.599 89.3509 108.071C89.5952 108.543 89.9389 108.906 90.3821 109.162C90.8253 109.418 91.3509 109.545 91.9588 109.545C92.3622 109.545 92.7315 109.489 93.0668 109.375C93.402 109.261 93.6889 109.091 93.9276 108.864C94.1662 108.636 94.348 108.358 94.473 108.028L97.831 108.25C97.6605 109.057 97.3111 109.761 96.7827 110.364C96.2599 110.96 95.5838 111.426 94.7543 111.761C93.9304 112.091 92.9787 112.256 91.8991 112.256ZM107.24 98.9091V101.636H99.3565V98.9091H107.24ZM101.146 95.7727H104.777V107.977C104.777 108.312 104.828 108.574 104.93 108.761C105.033 108.943 105.175 109.071 105.357 109.145C105.544 109.219 105.76 109.256 106.004 109.256C106.175 109.256 106.345 109.241 106.516 109.213C106.686 109.179 106.817 109.153 106.908 109.136L107.479 111.838C107.297 111.895 107.041 111.96 106.712 112.034C106.382 112.114 105.982 112.162 105.51 112.179C104.635 112.213 103.868 112.097 103.209 111.83C102.555 111.562 102.047 111.148 101.683 110.585C101.32 110.023 101.141 109.312 101.146 108.455V95.7727ZM113.517 104.432V112H109.886V94.5455H113.415V101.219H113.568C113.864 100.446 114.341 99.8409 115 99.4034C115.659 98.9602 116.486 98.7386 117.48 98.7386C118.389 98.7386 119.182 98.9375 119.858 99.3352C120.54 99.7273 121.068 100.293 121.443 101.031C121.824 101.764 122.011 102.642 122.006 103.665V112H118.375V104.312C118.381 103.506 118.176 102.878 117.761 102.429C117.352 101.98 116.778 101.756 116.04 101.756C115.545 101.756 115.108 101.861 114.727 102.071C114.352 102.281 114.057 102.588 113.841 102.991C113.631 103.389 113.523 103.869 113.517 104.432ZM124.863 112V98.9091H128.494V112H124.863ZM126.687 97.2216C126.147 97.2216 125.684 97.0426 125.298 96.6847C124.917 96.321 124.727 95.8864 124.727 95.3807C124.727 94.8807 124.917 94.4517 125.298 94.0938C125.684 93.7301 126.147 93.5483 126.687 93.5483C127.227 93.5483 127.687 93.7301 128.067 94.0938C128.454 94.4517 128.647 94.8807 128.647 95.3807C128.647 95.8864 128.454 96.321 128.067 96.6847C127.687 97.0426 127.227 97.2216 126.687 97.2216ZM137.317 112.256C135.976 112.256 134.822 111.972 133.857 111.403C132.896 110.83 132.158 110.034 131.641 109.017C131.129 108 130.874 106.83 130.874 105.506C130.874 104.165 131.132 102.989 131.649 101.977C132.172 100.96 132.913 100.168 133.874 99.5994C134.834 99.0256 135.976 98.7386 137.3 98.7386C138.442 98.7386 139.442 98.946 140.3 99.3608C141.158 99.7756 141.837 100.358 142.337 101.108C142.837 101.858 143.112 102.739 143.163 103.75H139.737C139.641 103.097 139.385 102.571 138.97 102.173C138.561 101.77 138.024 101.568 137.359 101.568C136.797 101.568 136.305 101.722 135.885 102.028C135.47 102.33 135.146 102.77 134.913 103.349C134.68 103.929 134.564 104.631 134.564 105.455C134.564 106.29 134.678 107 134.905 107.585C135.138 108.17 135.464 108.616 135.885 108.923C136.305 109.23 136.797 109.384 137.359 109.384C137.774 109.384 138.146 109.298 138.476 109.128C138.811 108.957 139.087 108.71 139.303 108.386C139.524 108.057 139.669 107.662 139.737 107.202H143.163C143.107 108.202 142.834 109.082 142.345 109.844C141.862 110.599 141.195 111.19 140.342 111.616C139.49 112.043 138.482 112.256 137.317 112.256ZM156.38 102.642L153.056 102.847C152.999 102.562 152.877 102.307 152.69 102.08C152.502 101.847 152.255 101.662 151.948 101.526C151.647 101.384 151.286 101.312 150.866 101.312C150.303 101.312 149.829 101.432 149.442 101.67C149.056 101.903 148.863 102.216 148.863 102.608C148.863 102.92 148.988 103.185 149.238 103.401C149.488 103.616 149.917 103.79 150.525 103.92L152.894 104.398C154.167 104.659 155.116 105.08 155.741 105.659C156.366 106.239 156.678 107 156.678 107.943C156.678 108.801 156.425 109.554 155.92 110.202C155.42 110.849 154.732 111.355 153.857 111.719C152.988 112.077 151.985 112.256 150.849 112.256C149.116 112.256 147.735 111.895 146.707 111.173C145.684 110.446 145.085 109.457 144.908 108.207L148.479 108.02C148.587 108.548 148.849 108.952 149.263 109.23C149.678 109.503 150.21 109.639 150.857 109.639C151.494 109.639 152.005 109.517 152.391 109.273C152.783 109.023 152.982 108.702 152.988 108.31C152.982 107.98 152.843 107.71 152.57 107.5C152.298 107.284 151.877 107.119 151.309 107.006L149.042 106.554C147.763 106.298 146.812 105.855 146.187 105.224C145.567 104.594 145.258 103.79 145.258 102.812C145.258 101.972 145.485 101.247 145.94 100.639C146.4 100.031 147.045 99.5625 147.874 99.233C148.71 98.9034 149.687 98.7386 150.806 98.7386C152.46 98.7386 153.761 99.0881 154.71 99.7869C155.664 100.486 156.221 101.437 156.38 102.642ZM75.4535 141.256C74.1126 141.256 72.9592 140.972 71.9933 140.403C71.033 139.83 70.2944 139.034 69.7773 138.017C69.266 137 69.0103 135.83 69.0103 134.506C69.0103 133.165 69.2688 131.989 69.7859 130.977C70.3086 129.96 71.0501 129.168 72.0103 128.599C72.9705 128.026 74.1126 127.739 75.4364 127.739C76.5785 127.739 77.5785 127.946 78.4364 128.361C79.2944 128.776 79.9734 129.358 80.4734 130.108C80.9734 130.858 81.2489 131.739 81.3001 132.75H77.8739C77.7773 132.097 77.5217 131.571 77.1069 131.173C76.6978 130.77 76.1609 130.568 75.4961 130.568C74.9336 130.568 74.4421 130.722 74.0217 131.028C73.6069 131.33 73.283 131.77 73.0501 132.349C72.8171 132.929 72.7006 133.631 72.7006 134.455C72.7006 135.29 72.8143 136 73.0415 136.585C73.2745 137.17 73.6012 137.616 74.0217 137.923C74.4421 138.23 74.9336 138.384 75.4961 138.384C75.9109 138.384 76.283 138.298 76.6126 138.128C76.9478 137.957 77.2234 137.71 77.4393 137.386C77.6609 137.057 77.8058 136.662 77.8739 136.202H81.3001C81.2433 137.202 80.9705 138.082 80.4819 138.844C79.9989 139.599 79.3313 140.19 78.479 140.616C77.6268 141.043 76.6183 141.256 75.4535 141.256ZM87.3576 141.247C86.5224 141.247 85.7781 141.102 85.1246 140.812C84.4712 140.517 83.9542 140.082 83.5735 139.509C83.1985 138.929 83.011 138.207 83.011 137.344C83.011 136.616 83.1445 136.006 83.4116 135.511C83.6786 135.017 84.0423 134.619 84.5025 134.318C84.9627 134.017 85.4854 133.79 86.0707 133.636C86.6616 133.483 87.2809 133.375 87.9286 133.312C88.69 133.233 89.3036 133.159 89.7695 133.091C90.2354 133.017 90.5735 132.909 90.7837 132.767C90.994 132.625 91.0991 132.415 91.0991 132.136V132.085C91.0991 131.545 90.9286 131.128 90.5877 130.832C90.2525 130.537 89.7752 130.389 89.1559 130.389C88.5025 130.389 87.9826 130.534 87.5962 130.824C87.2099 131.108 86.9542 131.466 86.8292 131.898L83.4712 131.625C83.6417 130.83 83.9769 130.142 84.4769 129.562C84.9769 128.977 85.6218 128.528 86.4116 128.216C87.207 127.898 88.1275 127.739 89.1729 127.739C89.9002 127.739 90.5962 127.824 91.261 127.994C91.9315 128.165 92.5252 128.429 93.0423 128.787C93.565 129.145 93.9769 129.605 94.2781 130.168C94.5792 130.724 94.7298 131.392 94.7298 132.17V141H91.2866V139.185H91.1843C90.9741 139.594 90.6928 139.955 90.3406 140.267C89.9883 140.574 89.565 140.815 89.0707 140.991C88.5763 141.162 88.0053 141.247 87.3576 141.247ZM88.3974 138.741C88.9315 138.741 89.4031 138.636 89.8121 138.426C90.2212 138.21 90.5423 137.92 90.7752 137.557C91.0082 137.193 91.1246 136.781 91.1246 136.321V134.932C91.011 135.006 90.8548 135.074 90.6559 135.136C90.4627 135.193 90.244 135.247 89.9996 135.298C89.7553 135.344 89.511 135.386 89.2667 135.426C89.0224 135.46 88.8008 135.491 88.6019 135.52C88.1758 135.582 87.8036 135.682 87.4854 135.818C87.1673 135.955 86.9201 136.139 86.744 136.372C86.5678 136.599 86.4798 136.884 86.4798 137.224C86.4798 137.719 86.6587 138.097 87.0167 138.358C87.3803 138.614 87.8406 138.741 88.3974 138.741ZM97.5465 145.909V127.909H101.126V130.108H101.288C101.447 129.756 101.677 129.398 101.978 129.034C102.285 128.665 102.683 128.358 103.172 128.114C103.666 127.864 104.279 127.739 105.012 127.739C105.967 127.739 106.848 127.989 107.654 128.489C108.461 128.983 109.106 129.73 109.589 130.73C110.072 131.724 110.314 132.972 110.314 134.472C110.314 135.932 110.078 137.165 109.606 138.17C109.14 139.17 108.504 139.929 107.697 140.446C106.896 140.957 105.998 141.213 105.004 141.213C104.299 141.213 103.7 141.097 103.206 140.864C102.717 140.631 102.316 140.338 102.004 139.986C101.691 139.628 101.453 139.267 101.288 138.903H101.177V145.909H97.5465ZM101.1 134.455C101.1 135.233 101.208 135.912 101.424 136.491C101.64 137.071 101.953 137.523 102.362 137.847C102.771 138.165 103.268 138.324 103.853 138.324C104.444 138.324 104.944 138.162 105.353 137.838C105.762 137.509 106.072 137.054 106.282 136.474C106.498 135.889 106.606 135.216 106.606 134.455C106.606 133.699 106.501 133.034 106.291 132.46C106.081 131.886 105.771 131.437 105.362 131.114C104.953 130.79 104.45 130.628 103.853 130.628C103.262 130.628 102.762 130.784 102.353 131.097C101.95 131.409 101.64 131.852 101.424 132.426C101.208 133 101.1 133.676 101.1 134.455ZM123.626 131.642L120.302 131.847C120.245 131.562 120.123 131.307 119.936 131.08C119.748 130.847 119.501 130.662 119.194 130.526C118.893 130.384 118.532 130.312 118.112 130.312C117.549 130.312 117.075 130.432 116.689 130.67C116.302 130.903 116.109 131.216 116.109 131.608C116.109 131.92 116.234 132.185 116.484 132.401C116.734 132.616 117.163 132.79 117.771 132.92L120.14 133.398C121.413 133.659 122.362 134.08 122.987 134.659C123.612 135.239 123.924 136 123.924 136.943C123.924 137.801 123.672 138.554 123.166 139.202C122.666 139.849 121.978 140.355 121.103 140.719C120.234 141.077 119.231 141.256 118.095 141.256C116.362 141.256 114.981 140.895 113.953 140.173C112.93 139.446 112.331 138.457 112.154 137.207L115.725 137.02C115.833 137.548 116.095 137.952 116.51 138.23C116.924 138.503 117.456 138.639 118.103 138.639C118.74 138.639 119.251 138.517 119.637 138.273C120.029 138.023 120.228 137.702 120.234 137.31C120.228 136.98 120.089 136.71 119.816 136.5C119.544 136.284 119.123 136.119 118.555 136.006L116.288 135.554C115.01 135.298 114.058 134.855 113.433 134.224C112.814 133.594 112.504 132.79 112.504 131.812C112.504 130.972 112.731 130.247 113.186 129.639C113.646 129.031 114.291 128.562 115.12 128.233C115.956 127.903 116.933 127.739 118.052 127.739C119.706 127.739 121.007 128.088 121.956 128.787C122.91 129.486 123.467 130.437 123.626 131.642ZM134.605 135.426V127.909H138.236V141H134.75V138.622H134.614C134.319 139.389 133.827 140.006 133.14 140.472C132.458 140.937 131.625 141.17 130.642 141.17C129.767 141.17 128.998 140.972 128.333 140.574C127.668 140.176 127.148 139.611 126.773 138.878C126.404 138.145 126.216 137.267 126.211 136.244V127.909H129.841V135.597C129.847 136.369 130.054 136.98 130.463 137.429C130.873 137.878 131.421 138.102 132.108 138.102C132.546 138.102 132.955 138.003 133.336 137.804C133.716 137.599 134.023 137.298 134.256 136.901C134.495 136.503 134.611 136.011 134.605 135.426ZM144.771 123.545V141H141.14V123.545H144.771ZM153.645 141.256C152.299 141.256 151.14 140.983 150.168 140.438C149.202 139.886 148.458 139.108 147.935 138.102C147.412 137.091 147.151 135.895 147.151 134.514C147.151 133.168 147.412 131.986 147.935 130.969C148.458 129.952 149.194 129.159 150.142 128.591C151.097 128.023 152.216 127.739 153.5 127.739C154.364 127.739 155.168 127.878 155.912 128.156C156.662 128.429 157.316 128.841 157.873 129.392C158.435 129.943 158.873 130.636 159.185 131.472C159.498 132.301 159.654 133.273 159.654 134.386V135.384H148.6V133.134H156.236C156.236 132.611 156.123 132.148 155.895 131.744C155.668 131.341 155.353 131.026 154.949 130.798C154.551 130.565 154.088 130.449 153.56 130.449C153.009 130.449 152.52 130.577 152.094 130.832C151.674 131.082 151.344 131.42 151.105 131.847C150.867 132.267 150.745 132.736 150.739 133.253V135.392C150.739 136.04 150.858 136.599 151.097 137.071C151.341 137.543 151.685 137.906 152.128 138.162C152.571 138.418 153.097 138.545 153.705 138.545C154.108 138.545 154.478 138.489 154.813 138.375C155.148 138.261 155.435 138.091 155.674 137.864C155.912 137.636 156.094 137.358 156.219 137.028L159.577 137.25C159.407 138.057 159.057 138.761 158.529 139.364C158.006 139.96 157.33 140.426 156.5 140.761C155.676 141.091 154.725 141.256 153.645 141.256ZM171.916 123.545L171.583 135.767H168.464L168.123 123.545H171.916ZM170.024 141.222C169.461 141.222 168.978 141.023 168.575 140.625C168.172 140.222 167.973 139.739 167.978 139.176C167.973 138.619 168.172 138.142 168.575 137.744C168.978 137.347 169.461 137.148 170.024 137.148C170.564 137.148 171.038 137.347 171.447 137.744C171.856 138.142 172.064 138.619 172.069 139.176C172.064 139.551 171.964 139.895 171.771 140.207C171.583 140.514 171.336 140.761 171.029 140.949C170.723 141.131 170.387 141.222 170.024 141.222Z" fill="white"/>
<path d="M198.007 276.838C200.614 304.512 180.598 329.008 153.331 331.577C126.063 334.146 101.824 313.82 99.2172 286.145C96.61 258.471 116.626 233.976 143.893 231.407C171.161 228.838 195.4 249.164 198.007 276.838Z" fill="#CECDCD" stroke="#12284F" stroke-width="2"/>
<path fill-rule="evenodd" clip-rule="evenodd" d="M135.658 299.426C136.722 305.082 142.964 309.028 150.065 308.359C157.166 307.69 162.562 302.647 162.551 296.892L135.658 299.426Z" fill="#12284F"/>
<path fill-rule="evenodd" clip-rule="evenodd" d="M179.554 240.971C182.415 243.219 185.039 245.773 187.374 248.591L105.154 256.337L105.051 255.242C106.673 252.475 108.548 249.87 110.646 247.463L179.554 240.971Z" fill="#12284F"/>
<circle cx="144.41" cy="244.282" r="23.0734" transform="rotate(-5.38206 144.41 244.282)" fill="#509E2D" stroke="#12284F"/>
<circle cx="144.41" cy="244.282" r="12.8582" transform="rotate(-5.38206 144.41 244.282)" fill="#A1D55D"/>
<mask id="path-18-inside-1_2054_925" fill="white">
<path d="M180.854 277.887C180.648 276.458 180.175 275.081 179.462 273.835C178.749 272.589 177.811 271.5 176.7 270.628C175.589 269.756 174.328 269.12 172.988 268.754C171.648 268.389 170.256 268.302 168.891 268.499C167.526 268.696 166.216 269.173 165.034 269.902C163.852 270.631 162.822 271.598 162.003 272.748C161.184 273.898 160.591 275.209 160.259 276.605C159.928 278.002 159.863 279.456 160.069 280.886L161.589 280.667C161.413 279.446 161.468 278.204 161.751 277.012C162.035 275.82 162.54 274.701 163.24 273.719C163.939 272.737 164.818 271.911 165.827 271.289C166.837 270.666 167.956 270.259 169.121 270.091C170.286 269.923 171.475 269.997 172.618 270.309C173.762 270.621 174.839 271.164 175.788 271.909C176.736 272.653 177.537 273.583 178.146 274.647C178.755 275.71 179.159 276.886 179.335 278.106L180.854 277.887Z"/>
</mask>
<path d="M180.854 277.887C180.648 276.458 180.175 275.081 179.462 273.835C178.749 272.589 177.811 271.5 176.7 270.628C175.589 269.756 174.328 269.12 172.988 268.754C171.648 268.389 170.256 268.302 168.891 268.499C167.526 268.696 166.216 269.173 165.034 269.902C163.852 270.631 162.822 271.598 162.003 272.748C161.184 273.898 160.591 275.209 160.259 276.605C159.928 278.002 159.863 279.456 160.069 280.886L161.589 280.667C161.413 279.446 161.468 278.204 161.751 277.012C162.035 275.82 162.54 274.701 163.24 273.719C163.939 272.737 164.818 271.911 165.827 271.289C166.837 270.666 167.956 270.259 169.121 270.091C170.286 269.923 171.475 269.997 172.618 270.309C173.762 270.621 174.839 271.164 175.788 271.909C176.736 272.653 177.537 273.583 178.146 274.647C178.755 275.71 179.159 276.886 179.335 278.106L180.854 277.887Z" stroke="#12284F" stroke-width="2" mask="url(#path-18-inside-1_2054_925)"/>
<mask id="path-19-inside-2_2054_925" fill="white">
<path d="M137.854 281.887C137.648 280.458 137.175 279.081 136.462 277.835C135.749 276.589 134.811 275.5 133.7 274.628C132.589 273.756 131.328 273.12 129.988 272.754C128.648 272.389 127.256 272.302 125.891 272.499C124.526 272.696 123.216 273.173 122.034 273.902C120.852 274.631 119.822 275.598 119.003 276.748C118.184 277.898 117.591 279.209 117.259 280.605C116.928 282.002 116.863 283.456 117.069 284.886L118.589 284.667C118.413 283.446 118.468 282.204 118.751 281.012C119.035 279.82 119.54 278.701 120.24 277.719C120.939 276.737 121.818 275.911 122.827 275.289C123.837 274.666 124.956 274.259 126.121 274.091C127.286 273.923 128.475 273.997 129.618 274.309C130.762 274.621 131.839 275.164 132.788 275.909C133.736 276.653 134.537 277.583 135.146 278.647C135.755 279.71 136.159 280.886 136.335 282.106L137.854 281.887Z"/>
</mask>
<path d="M137.854 281.887C137.648 280.458 137.175 279.081 136.462 277.835C135.749 276.589 134.811 275.5 133.7 274.628C132.589 273.756 131.328 273.12 129.988 272.754C128.648 272.389 127.256 272.302 125.891 272.499C124.526 272.696 123.216 273.173 122.034 273.902C120.852 274.631 119.822 275.598 119.003 276.748C118.184 277.898 117.591 279.209 117.259 280.605C116.928 282.002 116.863 283.456 117.069 284.886L118.589 284.667C118.413 283.446 118.468 282.204 118.751 281.012C119.035 279.82 119.54 278.701 120.24 277.719C120.939 276.737 121.818 275.911 122.827 275.289C123.837 274.666 124.956 274.259 126.121 274.091C127.286 273.923 128.475 273.997 129.618 274.309C130.762 274.621 131.839 275.164 132.788 275.909C133.736 276.653 134.537 277.583 135.146 278.647C135.755 279.71 136.159 280.886 136.335 282.106L137.854 281.887Z" stroke="#12284F" stroke-width="2" mask="url(#path-19-inside-2_2054_925)"/>
<rect x="237" y="426" width="32" height="26" rx="11" fill="#D9D9D9" stroke="#12284F" stroke-width="2"/>
</svg>
