<svg width="412" height="941" viewBox="0 0 412 941" fill="none" xmlns="http://www.w3.org/2000/svg">
<path d="M153.177 140.775L153.798 141.116L154.325 140.644C160.551 135.068 176.174 127.75 194.578 125.516C212.942 123.288 233.879 126.147 250.85 140.659L251.349 141.085L251.938 140.798C256.851 138.401 261.567 138.061 266.033 139.34C270.523 140.626 274.833 143.571 278.855 147.864C286.91 156.463 293.638 170.295 298.182 186.182C302.72 202.05 305.05 219.868 304.38 236.36C303.71 252.872 300.038 267.941 292.682 278.408C262.983 320.668 198.688 329.743 154.233 298.502C143.295 290.815 134.98 275.644 129.409 257.373C123.85 239.143 121.076 218.003 121.089 198.6C121.101 179.169 123.908 161.613 129.406 150.482C132.154 144.917 135.513 141.083 139.406 139.334C143.246 137.608 147.8 137.826 153.177 140.775Z" fill="white" stroke="#12284F" stroke-width="2"/>
<path fill-rule="evenodd" clip-rule="evenodd" d="M234.198 130.44L223.626 225.875C205.033 228.029 185.986 226.608 167.597 221.42L177.815 129.178C195.87 124.219 215.508 124.513 234.198 130.44Z" fill="#12284F"/>
<path fill-rule="evenodd" clip-rule="evenodd" d="M157.909 218.299C157.523 218.157 157.137 218.014 156.751 217.868L150.969 199.815L159.5 190.624L147.936 170.207L178.122 126.915L178.927 127.504L149.107 170.27L160.205 189.864L160.607 189.432L161.103 190.28L152.056 200.027L157.909 218.299Z" fill="#12284F"/>
<path d="M157.909 218.299L157.736 218.768L158.697 219.121L158.385 218.146L157.909 218.299ZM156.751 217.868L156.275 218.021L156.349 218.251L156.575 218.336L156.751 217.868ZM150.969 199.815L150.602 199.475L150.403 199.689L150.493 199.968L150.969 199.815ZM159.5 190.624L159.867 190.964L160.116 190.696L159.935 190.377L159.5 190.624ZM147.936 170.207L147.525 169.921L147.345 170.179L147.5 170.453L147.936 170.207ZM178.122 126.915L178.417 126.512L178.005 126.21L177.712 126.629L178.122 126.915ZM178.927 127.504L179.338 127.79L179.617 127.389L179.222 127.1L178.927 127.504ZM149.107 170.27L148.696 169.984L148.516 170.243L148.672 170.517L149.107 170.27ZM160.205 189.864L159.77 190.111L160.107 190.705L160.572 190.205L160.205 189.864ZM160.607 189.432L161.038 189.18L160.698 188.598L160.24 189.092L160.607 189.432ZM161.103 190.28L161.469 190.62L161.722 190.348L161.534 190.028L161.103 190.28ZM152.056 200.027L151.69 199.686L151.491 199.901L151.58 200.179L152.056 200.027ZM158.081 217.829C157.696 217.688 157.312 217.545 156.927 217.401L156.575 218.336C156.962 218.482 157.349 218.626 157.736 218.768L158.081 217.829ZM150.493 199.968L156.275 218.021L157.227 217.716L151.445 199.663L150.493 199.968ZM159.134 190.284L150.602 199.475L151.335 200.155L159.867 190.964L159.134 190.284ZM147.5 170.453L159.065 190.87L159.935 190.377L148.371 169.96L147.5 170.453ZM177.712 126.629L147.525 169.921L148.346 170.493L178.532 127.201L177.712 126.629ZM179.222 127.1L178.417 126.512L177.827 127.319L178.632 127.907L179.222 127.1ZM149.517 170.556L179.338 127.79L178.517 127.218L148.696 169.984L149.517 170.556ZM160.64 189.618L149.542 170.024L148.672 170.517L159.77 190.111L160.64 189.618ZM160.24 189.092L159.839 189.524L160.572 190.205L160.973 189.772L160.24 189.092ZM161.534 190.028L161.038 189.18L160.175 189.685L160.671 190.533L161.534 190.028ZM152.423 200.367L161.469 190.62L160.736 189.94L151.69 199.686L152.423 200.367ZM158.385 218.146L152.532 199.874L151.58 200.179L157.433 218.451L158.385 218.146Z" fill="#12284F"/>
<path fill-rule="evenodd" clip-rule="evenodd" d="M238.248 223.69C238.652 223.617 239.057 223.542 239.462 223.465L248.262 206.675L241.437 196.153L256.34 178.028L234.045 130.192L233.151 130.633L255.175 177.89L240.873 195.284L240.552 194.789L239.918 195.539L247.154 206.696L238.248 223.69Z" fill="#12284F"/>
<path d="M238.248 223.69L238.337 224.182L237.33 224.364L237.805 223.458L238.248 223.69ZM239.462 223.465L239.905 223.697L239.792 223.911L239.555 223.956L239.462 223.465ZM248.262 206.675L248.681 206.402L248.84 206.648L248.705 206.907L248.262 206.675ZM241.437 196.153L241.018 196.425L240.819 196.118L241.051 195.836L241.437 196.153ZM256.34 178.028L256.793 177.817L256.926 178.103L256.726 178.346L256.34 178.028ZM234.045 130.192L233.824 129.744L234.282 129.517L234.498 129.981L234.045 130.192ZM233.151 130.633L232.698 130.844L232.491 130.401L232.929 130.185L233.151 130.633ZM255.175 177.89L255.629 177.679L255.762 177.964L255.562 178.207L255.175 177.89ZM240.873 195.284L241.26 195.602L240.826 196.129L240.454 195.556L240.873 195.284ZM240.552 194.789L240.171 194.466L240.605 193.952L240.972 194.517L240.552 194.789ZM239.918 195.539L239.498 195.811L239.296 195.5L239.536 195.216L239.918 195.539ZM247.154 206.696L247.574 206.424L247.733 206.669L247.597 206.928L247.154 206.696ZM238.158 223.198C238.562 223.125 238.965 223.05 239.369 222.974L239.555 223.956C239.149 224.033 238.743 224.108 238.337 224.182L238.158 223.198ZM248.705 206.907L239.905 223.697L239.019 223.233L247.819 206.442L248.705 206.907ZM241.857 195.881L248.681 206.402L247.842 206.947L241.018 196.425L241.857 195.881ZM256.726 178.346L241.823 196.471L241.051 195.836L255.954 177.711L256.726 178.346ZM234.498 129.981L256.793 177.817L255.887 178.24L233.592 130.403L234.498 129.981ZM232.929 130.185L233.824 129.744L234.266 130.64L233.372 131.082L232.929 130.185ZM254.722 178.101L232.698 130.844L233.604 130.422L255.629 177.679L254.722 178.101ZM240.487 194.967L254.789 177.572L255.562 178.207L241.26 195.602L240.487 194.967ZM240.972 194.517L241.293 195.012L240.454 195.556L240.133 195.061L240.972 194.517ZM239.536 195.216L240.171 194.466L240.934 195.112L240.299 195.862L239.536 195.216ZM246.735 206.968L239.498 195.811L240.337 195.267L247.574 206.424L246.735 206.968ZM237.805 223.458L246.711 206.464L247.597 206.928L238.69 223.922L237.805 223.458Z" fill="#12284F"/>
<rect y="208.399" width="412" height="732" rx="58" fill="#A1D55D"/>
<path d="M247.508 58.2371C250.115 85.9111 230.099 110.407 202.832 112.976C175.565 115.545 151.326 95.2183 148.718 67.5442C146.111 39.8702 166.127 15.3745 193.395 12.8056C220.662 10.2367 244.901 30.563 247.508 58.2371Z" fill="#CECDCD" stroke="#12284F" stroke-width="2"/>
<path fill-rule="evenodd" clip-rule="evenodd" d="M190 77.0505C190.407 79.6558 191.54 82.0447 193.206 83.7756C195.05 85.6915 197.396 86.6444 199.727 86.4247C202.059 86.2051 204.186 84.8308 205.64 82.6042C206.953 80.5925 207.62 78.0341 207.533 75.3987L205.756 75.5661C205.792 77.6102 205.26 79.5866 204.24 81.1496C203.079 82.9278 201.38 84.0254 199.518 84.2008C197.656 84.3763 195.782 83.6152 194.309 82.0851C193.015 80.7402 192.123 78.898 191.777 76.8831L190 77.0505Z" fill="#12284F"/>
<path fill-rule="evenodd" clip-rule="evenodd" d="M229.055 22.3696C231.916 24.6174 234.54 27.1718 236.875 29.9898L154.655 37.7359L154.552 36.6411C156.175 33.8734 158.049 31.2685 160.148 28.8616L229.055 22.3696Z" fill="#12284F"/>
<circle cx="193.911" cy="25.6806" r="23.0734" transform="rotate(-5.38206 193.911 25.6806)" fill="#509E2D" stroke="#12284F"/>
<circle cx="193.911" cy="25.6806" r="12.8582" transform="rotate(-5.38206 193.911 25.6806)" fill="#A1D55D"/>
<path d="M161.786 63.4313C161.62 56.7717 166.655 51.2807 172.986 51.1226C179.317 50.9646 184.62 56.1976 184.786 62.8571C184.952 69.5167 179.917 75.0077 173.586 75.1658C167.255 75.3238 161.952 70.0909 161.786 63.4313Z" fill="white" stroke="#12284F"/>
<path fill-rule="evenodd" clip-rule="evenodd" d="M173.793 58.1199C168.909 58.2418 165.049 62.2648 165.169 67.1056C165.288 71.8482 169.184 75.6162 173.934 75.6524C175.56 75.5652 177.097 75.1419 178.484 74.4491C181.166 72.8865 182.936 69.9655 182.853 66.6641C182.732 61.8234 178.676 57.998 173.793 58.1199Z" fill="#12284F"/>
<path d="M206.552 53.8358C207.647 47.2648 213.628 42.8239 219.876 43.8649C226.123 44.906 230.341 51.0465 229.246 57.6175C228.151 64.1886 222.17 68.6295 215.922 67.5884C209.675 66.5474 205.457 60.4069 206.552 53.8358Z" fill="white" stroke="#12284F"/>
<path fill-rule="evenodd" clip-rule="evenodd" d="M219.346 50.8886C214.527 50.0857 209.976 53.3068 209.18 58.0832C208.4 62.7628 211.514 67.199 216.172 68.1321C217.785 68.3536 219.374 68.2284 220.867 67.81C223.797 66.7824 226.086 64.2483 226.629 60.9909C227.425 56.2145 224.164 51.6915 219.346 50.8886Z" fill="#12284F"/>
<rect x="294" y="195.399" width="32" height="26" rx="11" fill="#D9D9D9" stroke="#12284F" stroke-width="2"/>
<rect x="100" y="195.399" width="32" height="26" rx="11" fill="#D9D9D9" stroke="#12284F" stroke-width="2"/>
</svg>
