<svg width="119" height="119" viewBox="0 0 119 119" fill="none" xmlns="http://www.w3.org/2000/svg">
<g filter="url(#filter0_d_13_184)">
<circle cx="62.5" cy="63.5" r="55" fill="#A1D55D" stroke="#12284F"/>
<mask id="path-2-inside-1_13_184" fill="white">
<path fill-rule="evenodd" clip-rule="evenodd" d="M116.11 77.9136C109.764 101.577 88.1664 119 62.5 119C60.879 119 59.2743 118.931 57.6886 118.794C56.3824 115.134 55.6738 111.21 55.6738 107.128C55.6738 87.1309 72.6822 70.9198 93.6631 70.9198C102.06 70.9198 109.821 73.5166 116.11 77.9136Z"/>
</mask>
<path fill-rule="evenodd" clip-rule="evenodd" d="M116.11 77.9136C109.764 101.577 88.1664 119 62.5 119C60.879 119 59.2743 118.931 57.6886 118.794C56.3824 115.134 55.6738 111.21 55.6738 107.128C55.6738 87.1309 72.6822 70.9198 93.6631 70.9198C102.06 70.9198 109.821 73.5166 116.11 77.9136Z" fill="white"/>
<path d="M116.11 77.9136L117.076 78.1726L117.257 77.4956L116.683 77.094L116.11 77.9136ZM57.6886 118.794L56.7468 119.13L56.9628 119.736L57.6031 119.791L57.6886 118.794ZM115.144 77.6545C108.912 100.892 87.7026 118 62.5 118V120C88.6303 120 110.615 102.262 117.076 78.1726L115.144 77.6545ZM62.5 118C60.9076 118 59.3315 117.932 57.7742 117.798L57.6031 119.791C59.2172 119.929 60.8504 120 62.5 120V118ZM58.6305 118.458C57.362 114.904 56.6738 111.093 56.6738 107.128H54.6738C54.6738 111.327 55.4028 115.364 56.7468 119.13L58.6305 118.458ZM56.6738 107.128C56.6738 87.7279 73.1887 71.9198 93.6631 71.9198V69.9198C72.1757 69.9198 54.6738 86.5339 54.6738 107.128H56.6738ZM93.6631 71.9198C101.852 71.9198 109.413 74.4517 115.537 78.7331L116.683 77.094C110.229 72.5814 102.269 69.9198 93.6631 69.9198V71.9198Z" fill="#12284F" mask="url(#path-2-inside-1_13_184)"/>
<path fill-rule="evenodd" clip-rule="evenodd" d="M81.7218 72.7448L99.4094 104.949C94.062 109.714 87.7864 113.46 80.8878 115.881L63.7919 84.7548C68.3537 79.2296 74.5666 75.001 81.7218 72.7448Z" fill="#12284F"/>
<path fill-rule="evenodd" clip-rule="evenodd" d="M77.8972 116.836C77.5035 116.947 77.108 117.053 76.7108 117.156L70.9285 112.776L71.5773 108.021L63.4645 104.174L63.3904 83.9786L64.3874 83.9972L64.4592 103.552L70.126 106.24L69.9547 106.624L72.5551 107.814L71.9396 112.324L77.8972 116.836Z" fill="#12284F"/>
<path fill-rule="evenodd" clip-rule="evenodd" d="M102.971 101.582C103.262 101.295 103.551 101.004 103.837 100.71L102.898 93.5175L98.4463 91.7251L99.1242 82.7718L81.6193 72.7006L81.1414 73.5757L98.0916 83.3279L97.6181 89.5818L98.0369 89.6235L97.7812 92.4714L102.004 94.1717L102.971 101.582Z" fill="#12284F"/>
<path d="M77.8631 53.5767C78.9755 65.3843 70.4354 75.8341 58.8038 76.93C47.1721 78.0258 36.8306 69.3549 35.7182 57.5473C34.6058 45.7397 43.1459 35.2899 54.7775 34.1941C66.4092 33.0982 76.7507 41.7691 77.8631 53.5767Z" fill="#CECDCD" stroke="#12284F"/>
<path d="M52.4516 55.9708C52.7355 58.9841 50.647 61.6007 47.8451 61.8647C45.0431 62.1287 42.5027 59.9481 42.2188 56.9349C41.9349 53.9216 44.0234 51.305 46.8253 51.041C49.6273 50.777 52.1677 52.9576 52.4516 55.9708Z" fill="white" stroke="#12284F"/>
<path fill-rule="evenodd" clip-rule="evenodd" d="M47.2624 58.8446C49.5471 58.6293 51.2247 56.6027 51.0094 54.3181C50.7986 52.0797 48.8491 50.4241 46.6216 50.5603C45.8624 50.654 45.1561 50.9037 44.5288 51.276C43.3227 52.1013 42.5891 53.5394 42.7359 55.0975C42.9512 57.3822 44.9777 59.0598 47.2624 58.8446Z" fill="#12284F"/>
<path d="M69.5896 54.3562C69.8735 57.3695 67.785 59.9861 64.9831 60.2501C62.1811 60.5141 59.6407 58.3335 59.3568 55.3203C59.0729 52.307 61.1614 49.6904 63.9633 49.4264C66.7653 49.1624 69.3057 51.343 69.5896 54.3562Z" fill="white" stroke="#12284F"/>
<path fill-rule="evenodd" clip-rule="evenodd" d="M64.4004 57.23C66.6851 57.0147 68.3627 54.9881 68.1475 52.7035C67.9366 50.4651 65.9871 48.8095 63.7596 48.9457C63.0004 49.0394 62.2941 49.2891 61.6668 49.6614C60.4607 50.4867 59.7271 51.9248 59.8739 53.4829C60.0892 55.7676 62.1158 57.4452 64.4004 57.23Z" fill="#12284F"/>
<path fill-rule="evenodd" clip-rule="evenodd" d="M53.6175 63.0155C53.8635 65.6266 55.6504 67.5937 57.6087 67.4092C59.567 67.2247 60.9551 64.9585 60.7091 62.3474L59.7135 62.4412C59.8181 63.5522 59.5703 64.5515 59.1327 65.266C58.6953 65.98 58.1104 66.3575 57.5149 66.4136C56.9194 66.4697 56.2742 66.2081 55.7112 65.5883C55.1479 64.9682 54.7177 64.0327 54.6131 62.9217L53.6175 63.0155Z" fill="#12284F"/>
<path fill-rule="evenodd" clip-rule="evenodd" d="M70.0359 38.2165C71.2605 39.1786 72.3837 40.2721 73.3832 41.4784L38.188 44.7942L38.1438 44.3256C38.8383 43.1408 39.6407 42.0257 40.5389 40.9954L70.0359 38.2165Z" fill="#12284F"/>
<path d="M64.5405 38.7342C65.0374 44.0078 61.1651 48.6856 55.8915 49.1824C50.6179 49.6793 45.9401 45.807 45.4433 40.5334C44.9465 35.2598 48.8188 30.582 54.0923 30.0852C59.3659 29.5883 64.0437 33.4606 64.5405 38.7342Z" fill="#509E2D" stroke="#12284F"/>
<ellipse cx="54.9919" cy="39.6338" rx="5.50413" ry="5.50413" transform="rotate(-5.38206 54.9919 39.6338)" fill="#A1D55D"/>
</g>
<defs>
<filter id="filter0_d_13_184" x="0" y="0" width="119" height="119" filterUnits="userSpaceOnUse" color-interpolation-filters="sRGB">
<feFlood flood-opacity="0" result="BackgroundImageFix"/>
<feColorMatrix in="SourceAlpha" type="matrix" values="0 0 0 0 0 0 0 0 0 0 0 0 0 0 0 0 0 0 127 0" result="hardAlpha"/>
<feOffset dx="-3" dy="-4"/>
<feGaussianBlur stdDeviation="2"/>
<feComposite in2="hardAlpha" operator="out"/>
<feColorMatrix type="matrix" values="0 0 0 0 0.0509804 0 0 0 0 0.0509804 0 0 0 0 0.0509804 0 0 0 0.6 0"/>
<feBlend mode="normal" in2="BackgroundImageFix" result="effect1_dropShadow_13_184"/>
<feBlend mode="normal" in="SourceGraphic" in2="effect1_dropShadow_13_184" result="shape"/>
</filter>
</defs>
</svg>
