<svg width="31" height="36" viewBox="0 0 31 36" fill="none" xmlns="http://www.w3.org/2000/svg">
<path fill-rule="evenodd" clip-rule="evenodd" d="M31 0.5C31 6.73259 29.367 12.7099 26.4601 17.117C24.1494 20.6205 21.1841 22.9035 18 23.6924V32.1007C18.5168 32.1429 19.0244 32.1982 19.5182 32.2664C20.7921 32.4423 21.9496 32.7001 22.9246 33.0251C23.8996 33.3501 24.6731 33.736 25.2007 34.1606C25.7284 34.5852 26 35.0404 26 35.5H15.5H5C5 35.0404 5.27158 34.5852 5.79926 34.1606C6.32693 33.736 7.10037 33.3501 8.07538 33.0251C9.05038 32.7001 10.2079 32.4423 11.4818 32.2664C11.9756 32.1982 12.4832 32.1429 13 32.1007V23.6924C9.81592 22.9035 6.85065 20.6205 4.53986 17.117C1.63303 12.7099 0 6.73259 0 0.500004L15.5 0.5H31Z" fill="#E8BE4B"/>
</svg>
