<svg width="45" height="42" viewBox="0 0 45 42" fill="none" xmlns="http://www.w3.org/2000/svg">
<path d="M33.0962 12.1437L19.7003 35.2153L7.45364 19.5064L33.0962 12.1437Z" fill="#E8BE4B"/>
<circle cx="35.7696" cy="10.6935" r="2" transform="rotate(52.06 35.7696 10.6935)" fill="#F04259"/>
<path fill-rule="evenodd" clip-rule="evenodd" d="M28.4196 19.8668L30.8209 15.731C30.1107 15.5653 29.3344 15.7104 28.7144 16.1937C27.6255 17.0426 27.431 18.6136 28.2799 19.7025C28.3245 19.7597 28.3712 19.8145 28.4196 19.8668ZM23.7438 14.8291C24.3454 15.8898 24.0948 17.2592 23.1044 18.0313C22.0155 18.8803 20.4446 18.6857 19.5957 17.5968C19.2639 17.1712 19.0915 16.6721 19.0696 16.1712L23.7438 14.8291ZM23.0655 29.4195L20.6542 33.5725C20.5972 33.5126 20.5426 33.4494 20.4907 33.3828C19.6418 32.2939 19.8363 30.723 20.9252 29.8741C21.5551 29.3831 22.3462 29.2412 23.0655 29.4195ZM9.95155 20.6774C9.59243 20.9574 9.33058 21.3159 9.17137 21.7098L11.8343 25.1255C12.2551 25.0672 12.6666 24.9007 13.0257 24.6207C14.1146 23.7718 14.3092 22.2009 13.4603 21.112C12.6114 20.0231 11.0405 19.8285 9.95155 20.6774ZM22.8502 25.8375C21.7613 26.6864 20.1903 26.4918 19.3414 25.4029C18.4925 24.314 18.6871 22.7431 19.776 21.8942C20.8649 21.0453 22.4358 21.2398 23.2847 22.3287C24.1336 23.4176 23.9391 24.9885 22.8502 25.8375Z" fill="#F04259"/>
</svg>
